Normalized EMG Linear Envelopes
nRows=145
nColumns=4

endheader
time	 med_gas_r	  soleus_r	 tib_ant_r	
2.68733	  0.054951	  0.076966	  0.030750	
2.74982	  0.057498	  0.077761	  0.028483	
2.81232	  0.058949	  0.077628	  0.026686	
2.87482	  0.058701	  0.076298	  0.025589	
2.93731	  0.057039	  0.074095	  0.025189	
2.99981	  0.054945	  0.071541	  0.025184	
3.0623	  0.053338	  0.069284	  0.025123	
3.1248	  0.052614	  0.067959	  0.024919	
3.1873	  0.052802	  0.067770	  0.024974	
3.24979	  0.053741	  0.068555	  0.025638	
3.31229	  0.055160	  0.070066	  0.026761	
3.37478	  0.056769	  0.071829	  0.027888	
3.43728	  0.058195	  0.073304	  0.028808	
3.49978	  0.058910	  0.074244	  0.029501	
3.56227	  0.058405	  0.074448	  0.029549	
3.62477	  0.056731	  0.073675	  0.028415	
3.68726	  0.054767	  0.072004	  0.026400	
3.74976	  0.053440	  0.069711	  0.024531	
3.81226	  0.052981	  0.067132	  0.023566	
3.87475	  0.053430	  0.065246	  0.023647	
3.93725	  0.054823	  0.065764	  0.024554	
3.99974	  0.056355	  0.069585	  0.025783	
4.06224	  0.056934	  0.075222	  0.026704	
4.12474	  0.056703	  0.079805	  0.027050	
4.18723	  0.056382	  0.081954	  0.027046	
4.24973	  0.055862	  0.082549	  0.026941	
4.31222	  0.054784	  0.082289	  0.026728	
4.37472	  0.053476	  0.080428	  0.026320	
4.43722	  0.052585	  0.076828	  0.025784	
4.49971	  0.052445	  0.073102	  0.025354	
4.56221	  0.052913	  0.070874	  0.025227	
4.6247	  0.053550	  0.070389	  0.025396	
4.6872	  0.053864	  0.070967	  0.025723	
4.7497	  0.053210	  0.071570	  0.026067	
4.81219	  0.050717	  0.070950	  0.026278	
4.87469	  0.045984	  0.068321	  0.026227	
4.93718	  0.040376	  0.064355	  0.025923	
4.99968	  0.038481	  0.061628	  0.025458	
5.06218	  0.049598	  0.065031	  0.025014	
5.12467	  0.088070	  0.082580	  0.025621	
5.18717	  0.167150	  0.123324	  0.029736	
5.24966	  0.282706	  0.189109	  0.039638	
5.31216	  0.403755	  0.266862	  0.054586	
5.37466	  0.493256	  0.334575	  0.070648	
5.43715	  0.537845	  0.377495	  0.083727	
5.49965	  0.547012	  0.395051	  0.092097	
5.56214	  0.534643	  0.397020	  0.096501	
5.62464	  0.511495	  0.398208	  0.098639	
5.68714	  0.487394	  0.406378	  0.099694	
5.74963	  0.476318	  0.414031	  0.100381	
5.81213	  0.490461	  0.411594	  0.101521	
5.87462	  0.522751	  0.400299	  0.103441	
5.93712	  0.549055	  0.388157	  0.105407	
5.99962	  0.550417	  0.382061	  0.106017	
6.06211	  0.525792	  0.380108	  0.103907	
6.12461	  0.490834	  0.373830	  0.099106	
6.1871	  0.468095	  0.362494	  0.093987	
6.2496	  0.470793	  0.354399	  0.091464	
6.3121	  0.491999	  0.355048	  0.091879	
6.37459	  0.512108	  0.361292	  0.092697	
6.43709	  0.518071	  0.364671	  0.091657	
6.49958	  0.511168	  0.360983	  0.089122	
6.56208	  0.498045	  0.355296	  0.086529	
6.62458	  0.482136	  0.355710	  0.084326	
6.68707	  0.465465	  0.365681	  0.082983	
6.74957	  0.453506	  0.381490	  0.083621	
6.81206	  0.452950	  0.394802	  0.085782	
6.87456	  0.467111	  0.400254	  0.087182	
6.93706	  0.494880	  0.401063	  0.086708	
6.99955	  0.528218	  0.404425	  0.085314	
7.06205	  0.552266	  0.412669	  0.084439	
7.12454	  0.554372	  0.421738	  0.084993	
7.18704	  0.532491	  0.426281	  0.086582	
7.24954	  0.496342	  0.423659	  0.087705	
7.31203	  0.464019	  0.415548	  0.087461	
7.37453	  0.451489	  0.407882	  0.085998	
7.43702	  0.460495	  0.406270	  0.083695	
7.49952	  0.479643	  0.411993	  0.081250	
7.56202	  0.494284	  0.423655	  0.079932	
7.62451	  0.494414	  0.436504	  0.080804	
7.68701	  0.480382	  0.441228	  0.083921	
7.7495	  0.462042	  0.431250	  0.088434	
7.812	  0.451391	  0.409999	  0.093071	
7.8745	  0.455899	  0.388314	  0.096001	
7.93699	  0.473247	  0.375327	  0.095079	
7.99949	  0.493170	  0.371029	  0.089866	
8.06198	  0.508643	  0.369258	  0.083015	
8.12448	  0.519672	  0.367820	  0.078388	
8.18698	  0.526507	  0.370990	  0.078179	
8.24947	  0.527176	  0.382911	  0.081712	
8.31197	  0.520764	  0.403244	  0.085966	
8.37446	  0.510526	  0.427733	  0.087991	
8.43696	  0.503639	  0.449043	  0.087481	
8.49946	  0.506588	  0.459248	  0.086083	
8.56195	  0.519825	  0.456748	  0.084841	
8.62445	  0.535551	  0.449380	  0.083446	
8.68694	  0.543508	  0.446174	  0.081370	
8.74944	  0.539700	  0.448217	  0.078972	
8.81194	  0.525839	  0.449950	  0.077341	
8.87443	  0.505651	  0.446673	  0.077204	
8.93693	  0.484533	  0.442215	  0.078341	
8.99942	  0.465885	  0.450418	  0.080025	
9.06192	  0.449126	  0.482908	  0.081492	
9.12442	  0.435526	  0.533807	  0.081909	
9.18691	  0.431129	  0.582087	  0.080683	
9.24941	  0.440620	  0.610226	  0.078295	
9.3119	  0.461346	  0.615087	  0.076169	
9.3744	  0.484634	  0.599848	  0.075443	
9.4369	  0.500777	  0.566596	  0.076157	
9.49939	  0.503942	  0.522208	  0.077540	
9.56189	  0.495061	  0.481385	  0.078507	
9.62438	  0.478297	  0.458659	  0.077936	
9.68688	  0.456942	  0.460354	  0.075519	
9.74938	  0.437502	  0.482264	  0.072584	
9.81187	  0.430987	  0.512399	  0.071142	
9.87437	  0.443266	  0.537191	  0.072171	
9.93686	  0.468655	  0.547781	  0.074947	
9.99936	  0.494388	  0.544526	  0.077577	
10.0619	  0.506899	  0.535880	  0.078615	
10.1244	  0.497705	  0.528620	  0.078249	
10.1868	  0.471475	  0.520475	  0.077327	
10.2493	  0.444827	  0.506248	  0.075950	
10.3118	  0.432335	  0.486153	  0.073736	
10.3743	  0.436619	  0.464591	  0.070869	
10.4368	  0.446531	  0.446832	  0.068231	
10.4993	  0.443217	  0.435916	  0.066388	
10.5618	  0.419411	  0.425700	  0.064695	
10.6243	  0.388156	  0.402087	  0.062047	
10.6868	  0.365939	  0.358873	  0.058525	
10.7493	  0.358082	  0.306949	  0.055356	
10.8118	  0.358666	  0.262241	  0.053212	
10.8743	  0.356534	  0.230053	  0.051721	
10.9368	  0.345809	  0.205013	  0.050648	
10.9993	  0.328877	  0.181169	  0.050256	
11.0618	  0.307927	  0.157340	  0.050569	
11.1243	  0.282721	  0.134421	  0.051438	
11.1868	  0.256743	  0.113225	  0.052781	
11.2493	  0.236046	  0.095999	  0.053959	
11.3118	  0.221184	  0.085062	  0.053904	
11.3743	  0.208648	  0.079636	  0.052056	
11.4368	  0.199111	  0.077106	  0.048707	
11.4993	  0.194912	  0.075948	  0.044871	
11.5618	  0.193489	  0.075696	  0.041242	
11.6243	  0.191078	  0.075734	  0.037130	
11.6868	  0.187289	  0.075497	  0.031937	
